<?xml version="1.0" encoding="UTF-8"?>
<svg version="1.1" xmlns="http://www.w3.org/2000/svg" width="1151" height="509">
<path d="M0 0 C379.83 0 759.66 0 1151 0 C1151 167.97 1151 335.94 1151 509 C771.17 509 391.34 509 0 509 C0 341.03 0 173.06 0 0 Z " fill="#FCFCFD" transform="translate(0,0)"/>
<path d="M0 0 C4.56578045 2.81541026 8.23546867 7.11656225 9.92578125 12.1875 C10.43368935 18.40937421 10.67932481 23.93253901 6.92578125 29.1875 C1.67367838 34.45431464 -2.52701482 36.48269136 -9.94921875 36.5625 C-15.76068592 36.48404821 -18.85466179 36.1789728 -23.07421875 32.1875 C-23.76064453 31.36378906 -23.76064453 31.36378906 -24.4609375 30.5234375 C-25.97518002 28.99250411 -25.97518002 28.99250411 -28.01953125 29.12109375 C-37.409094 31.29179912 -43.71043181 35.70940772 -48.8828125 43.84375 C-51.94235059 49.86251345 -52.37155683 55.10153119 -52.36474609 61.71850586 C-52.37146332 62.66089111 -52.37818054 63.60327637 -52.38510132 64.57421875 C-52.40406443 67.68364779 -52.40800566 70.7928605 -52.41015625 73.90234375 C-52.41658879 76.07743924 -52.42331748 78.25253386 -52.43032837 80.42762756 C-52.44229942 84.98961387 -52.44600971 89.55152449 -52.44482422 94.11352539 C-52.44462183 99.92335724 -52.47184145 105.73269551 -52.50636864 111.54241085 C-52.5287561 116.03894723 -52.53265803 120.53536744 -52.53160477 125.03195381 C-52.53394611 127.17150117 -52.54268567 129.31105247 -52.5582695 131.45054436 C-52.72036614 156.01880677 -46.79603551 179.03779322 -29.703125 197.62109375 C-11.12083867 215.49039067 10.25215699 221.77686219 35.53515625 221.45703125 C56.31152314 220.83861446 76.63393934 210.54026701 90.953125 195.57421875 C104.21020082 179.53446959 112.08253109 159.92185802 112.07104492 139.07446289 C112.07440353 138.18896255 112.07776215 137.30346222 112.08122253 136.39112854 C112.0906766 133.48078995 112.09267269 130.57050921 112.09375 127.66015625 C112.09696588 125.62666297 112.1003302 123.59316992 112.10383606 121.55967712 C112.10981305 117.30385807 112.11167737 113.04805928 112.11108398 108.79223633 C112.11098232 103.3507029 112.12464574 97.90929981 112.14185619 92.46779728 C112.15299636 88.2700898 112.15500259 84.07241367 112.15447426 79.87469292 C112.1556509 77.86892687 112.16005485 75.86315993 112.16780663 73.85740852 C112.17764946 71.04815756 112.17471179 68.23918753 112.16870117 65.42993164 C112.17432068 64.60942322 112.17994019 63.78891479 112.18572998 62.94354248 C112.13747974 54.02871762 110.26496557 45.1193044 104.23828125 38.26953125 C99.37500727 33.67099194 94.23299375 31.27123273 87.92578125 29.1875 C86.93578125 28.8575 85.94578125 28.5275 84.92578125 28.1875 C84.92578125 28.8475 84.92578125 29.5075 84.92578125 30.1875 C83.5 31.44140625 83.5 31.44140625 81.61328125 32.75 C80.99839844 33.18441406 80.38351563 33.61882812 79.75 34.06640625 C74.42295215 37.34020225 67.93545821 36.80624781 61.92578125 36.1875 C58.69892616 35.04347983 56.43228087 33.49891828 53.92578125 31.1875 C53.39984375 30.71441406 52.87390625 30.24132812 52.33203125 29.75390625 C48.22337989 25.17732515 48.25279729 20.22281616 48.51171875 14.28125 C49.19407706 9.18287473 50.66368607 6.15140991 54.64453125 2.6953125 C60.496218 -1.69345257 65.6843843 -2.58575162 72.92578125 -1.8125 C76.71320152 -0.64089373 80.60168567 0.66029831 83.25 3.71484375 C85.79563921 5.95192063 88.51896937 6.21427326 91.80078125 6.9375 C107.24730285 10.66986097 118.49387465 18.71383482 126.92578125 32.1875 C134.29835233 46.43123303 134.25018381 60.68987782 134.26171875 76.33984375 C134.26816101 78.40613391 134.27489038 80.4724232 134.28189087 82.53871155 C134.29382427 86.86152251 134.29757604 91.18425382 134.29638672 95.50708008 C134.29618441 100.99007583 134.32341342 106.47254816 134.35793114 111.95542049 C134.38040575 116.22396591 134.38421794 120.49238977 134.38316727 124.76098824 C134.38549526 126.77917841 134.3941563 128.79737343 134.409832 130.81550407 C134.63475309 162.77791607 126.00582623 191.01790797 103.17578125 214.375 C87.07608115 230.26471514 62.93081222 243.31451652 39.92578125 243.1875 C40.01037235 252.43710961 40.10532767 261.68653913 40.21330833 270.93590546 C40.26313346 275.23132635 40.3094641 279.52672429 40.34765625 283.82226562 C40.38468396 287.97209293 40.43109002 292.12172145 40.48384476 296.27137756 C40.50229622 297.85006707 40.51743785 299.42879903 40.52912521 301.0075531 C40.54614728 303.22854727 40.57521795 305.44909529 40.60693359 307.66992188 C40.62025726 308.93122925 40.63358093 310.19253662 40.64730835 311.49206543 C41.14608183 318.11096722 42.41432874 324.11211593 46.92578125 329.1875 C53.73444368 334.07477853 60.65761772 335.38304876 68.92578125 334.1875 C69.91578125 333.5275 70.90578125 332.8675 71.92578125 332.1875 C71.59578125 331.1975 71.26578125 330.2075 70.92578125 329.1875 C70.10260262 320.14429475 70.38967074 312.63350411 75.92578125 305.1875 C82.22844167 298.05586297 88.45053802 294.70895174 97.86328125 293.8125 C106.42326371 294.2540864 112.81644586 296.9971117 119.01171875 302.9296875 C124.00470478 308.81937306 126.27926867 316.24487703 126.13671875 323.9140625 C125.3980896 331.87484336 122.43397215 338.4119212 116.92578125 344.1875 C109.08264473 350.26993241 103.02201093 350.40252696 93.49414062 349.93359375 C88.05730376 349.79408246 84.39398137 350.43506583 79.67163086 353.19482422 C71.78217204 357.68070585 61.07902136 357.21697816 52.484375 355.5 C40.29157437 352.04513323 30.11282968 346.12589595 23.61328125 334.92578125 C18.50506686 324.16472667 18.65468544 313.31063828 18.73046875 301.68359375 C18.73420471 299.99251982 18.73704893 298.3014437 18.73904419 296.61036682 C18.74663476 292.18645113 18.7662433 287.76266938 18.78845215 283.33880615 C18.80900981 278.81377982 18.81806701 274.28873158 18.828125 269.76367188 C18.84949404 260.90488948 18.88357392 252.04620593 18.92578125 243.1875 C17.29962891 243.20804443 17.29962891 243.20804443 15.640625 243.22900391 C-7.00767425 242.97596691 -29.85627607 228.00524027 -45.57421875 213.125 C-69.22847068 188.870217 -75.42213256 157.67644274 -75.33984375 124.9296875 C-75.34119525 123.00928702 -75.34313979 121.08888687 -75.34564209 119.16848755 C-75.34856915 115.16974589 -75.34437342 111.17109436 -75.33496094 107.17236328 C-75.32355236 102.08128647 -75.3301503 96.99042029 -75.34210587 91.89935112 C-75.349377 87.94249928 -75.34701283 83.98569634 -75.34185028 80.02884293 C-75.34052908 78.15281269 -75.34210697 76.27677782 -75.34680939 74.40075302 C-75.38752744 53.60446259 -73.57468835 37.37722225 -59.33984375 21.21875 C-51.44872926 13.53713413 -40.006111 8.23119155 -29.18359375 6.7421875 C-25.9174991 5.88332557 -23.98106177 3.87179383 -21.578125 1.5859375 C-15.88954654 -3.70370169 -6.73524718 -2.80747778 0 0 Z " fill="#4F9963" transform="translate(138.07421875,68.8125)"/>
<path d="M0 0 C57.03692831 0 57.03692831 0 69.3125 6.6875 C69.97709229 7.03852783 70.64168457 7.38955566 71.32641602 7.7512207 C86.49545371 15.99826768 95.15997636 27.41325583 100.125 43.6875 C104.64084859 60.78321252 102.38014355 79.2295709 94.01171875 94.7734375 C84.03483143 110.77520241 69.7896686 117.55258285 52 122 C34.84 122 17.68 122 0 122 C0 81.74 0 41.48 0 0 Z " fill="#201F20" transform="translate(748,183)"/>
<path d="M0 0 C10.29586141 7.17768624 16.83870679 17.53150961 19.67578125 29.6796875 C21.12414242 44.36334912 19.66501534 57.37589147 10.59375 69.42578125 C3.47470115 77.79175108 -5.50322788 83.77778149 -16.66186523 84.91870117 C-31.3160704 85.68743238 -42.74934142 84.26202173 -54.359375 74.5625 C-62.75014634 66.52203919 -68.04769587 56.05123866 -68.66015625 44.3828125 C-68.94803232 30.14718258 -66.25902954 17.18863116 -56.21875 6.421875 C-41.35985183 -7.43961004 -17.8543115 -10.14244922 0 0 Z " fill="#1E1E1F" transform="translate(711.32421875,222.3203125)"/>
<path d="M0 0 C9.92639735 6.8794916 17.92494504 17.45664893 20.4296875 29.40234375 C22.16087439 43.63654711 19.86872186 56.80018501 11.7109375 68.71484375 C5.33795338 76.73165314 -3.16156805 82.56538246 -13.2890625 84.71484375 C-27.56701437 85.98064803 -40.51962639 85.44897413 -52.09594727 76.13916016 C-61.52774303 67.94819693 -67.60518458 56.27647028 -68.5 43.765625 C-68.94142387 29.41934919 -64.93568673 16.4531183 -55.2890625 5.71484375 C-40.66230976 -7.70589766 -17.24901232 -9.68417245 0 0 Z " fill="#1E1E1E" transform="translate(930.2890625,222.28515625)"/>
<path d="M0 0 C6.93 0 13.86 0 21 0 C21 17.49 21 34.98 21 53 C41.46 53 61.92 53 83 53 C83 35.51 83 18.02 83 0 C89.93 0 96.86 0 104 0 C104 40.26 104 80.52 104 122 C97.07 122 90.14 122 83 122 C83 105.17 83 88.34 83 71 C62.54 71 42.08 71 21 71 C21 87.83 21 104.66 21 122 C14.07 122 7.14 122 0 122 C0 81.74 0 41.48 0 0 Z " fill="#1F1F1F" transform="translate(345,183)"/>
<path d="M0 0 C0.96873047 0.00612305 1.93746094 0.01224609 2.93554688 0.01855469 C14.12178034 0.26337124 22.22019501 3.37623858 30.75 10.6875 C35.72954022 16.45328342 38.19042793 22.70358774 38.33032227 30.29785156 C38.3602401 31.73889252 38.3602401 31.73889252 38.39076233 33.20904541 C38.40747482 34.23834167 38.42418732 35.26763794 38.44140625 36.328125 C38.46218735 37.38787537 38.48296844 38.44762573 38.50437927 39.53948975 C38.56972186 42.92209438 38.62868881 46.30477612 38.6875 49.6875 C38.73069975 51.98177878 38.77431451 54.27604979 38.81835938 56.5703125 C38.9253876 62.19262702 39.02718239 67.8150181 39.125 73.4375 C40.775 74.0975 42.425 74.7575 44.125 75.4375 C44.125 80.0575 44.125 84.6775 44.125 89.4375 C41.22859882 89.51870751 38.33449088 89.57809421 35.4375 89.625 C34.62087891 89.65013672 33.80425781 89.67527344 32.96289062 89.70117188 C28.20904677 89.75891087 24.91821974 89.64714747 21.125 86.4375 C19.70251817 84.17026787 19.03744366 81.98273758 18.125 79.4375 C17.66351562 79.89640625 17.20203125 80.3553125 16.7265625 80.828125 C8.49956936 88.56735175 -0.81675113 91.81597614 -12.05859375 91.6484375 C-20.79230705 90.9943175 -28.67005043 88.86672485 -34.875 82.4375 C-40.6856302 74.61093688 -40.73476621 65.81586939 -39.875 56.4375 C-38.75568054 53.15985155 -37.22492008 50.95613229 -34.875 48.4375 C-34.41351563 47.89867187 -33.95203125 47.35984375 -33.4765625 46.8046875 C-20.95774268 34.15877307 1.57394341 35.15058407 18.125 34.4375 C17.0011279 26.06899325 17.0011279 26.06899325 12.125 19.4375 C6.35428394 16.48176739 -1.02414445 16.36746193 -7.22265625 18.08984375 C-12.99210516 20.60251963 -13.28978459 22.16337303 -16.875 28.4375 C-23.145 28.4375 -29.415 28.4375 -35.875 28.4375 C-34.87115531 19.40289783 -33.61591615 13.67141386 -26.79296875 7.578125 C-18.45055783 1.6756136 -10.09559574 -0.10844195 0 0 Z " fill="#1E1D1E" transform="translate(505.875,216.5625)"/>
<path d="M0 0 C35.69565217 0 35.69565217 0 48.9296875 11.70703125 C55.65038107 18.55752363 59.44992622 28.46538778 60 38 C60.05027344 38.63550781 60.10054687 39.27101562 60.15234375 39.92578125 C60.63937985 50.58213111 57.99704686 61.18415194 52 70 C51.4225 70.886875 50.845 71.77375 50.25 72.6875 C42.51706984 80.63523377 33.72378427 83.46803082 23 85 C15.41 85 7.82 85 0 85 C0 56.95 0 28.9 0 0 Z " fill="#FCFCFC" transform="translate(769,202)"/>
<path d="M0 0 C7.86820145 5.36966395 12.80185587 12.01659514 16 21 C16 22.32 16 23.64 16 25 C-1.26251671 26.23059525 -1.26251671 26.23059525 -5.31640625 23.359375 C-6.6875 21.25 -6.6875 21.25 -7.84375 19.046875 C-9.54511652 16.03499642 -11.60998388 14.9614983 -14.73046875 13.625 C-20.87218376 11.93364991 -26.77723178 12.0655961 -32.5 14.9375 C-33.1084375 15.29714844 -33.716875 15.65679687 -34.34375 16.02734375 C-36 17 -36 17 -39 18 C-40.10168984 19.69769234 -40.10168984 19.69769234 -41 22 C-41.7734375 23.7015625 -41.7734375 23.7015625 -42.5625 25.4375 C-46.10782771 34.22374694 -46.34678584 44.16461416 -42.9140625 53.03515625 C-40.10818099 59.0666024 -36.56646579 62.96201955 -30.8125 66.25 C-23.71035177 68.1439062 -17.40093084 67.51423654 -11 64 C-7.15112531 61.37989728 -7.15112531 61.37989728 -4.99609375 57.38671875 C-3 55 -3 55 -0.88623047 54.59570312 C1.82045236 54.50670495 4.48216427 54.56546889 7.1875 54.6875 C8.59805664 54.72133789 8.59805664 54.72133789 10.03710938 54.75585938 C12.35967473 54.81480773 14.67903776 54.89702215 17 55 C15.91458408 65.07710003 11.06483995 71.87874447 3.375 78.30859375 C-7.67580123 86.1786545 -22.02016144 86.83766206 -35.09179688 84.64990234 C-46.33238722 81.88174202 -54.85521801 73.84163927 -60.8203125 64.203125 C-67.01399237 52.63612021 -67.69593446 39.09989975 -65.31640625 26.33203125 C-62.13937437 16.14180037 -55.84529147 6.16237885 -46.578125 0.52734375 C-32.2411991 -6.9235132 -14.33223058 -8.31816107 0 0 Z " fill="#1E1E1F" transform="translate(1028,222)"/>
<path d="M0 0 C6.6 0 13.2 0 20 0 C20 40.26 20 80.52 20 122 C13.4 122 6.8 122 0 122 C0 81.74 0 41.48 0 0 Z " fill="#1B1A1B" transform="translate(607,183)"/>
<path d="M0 0 C6.6 0 13.2 0 20 0 C20 40.26 20 80.52 20 122 C13.4 122 6.8 122 0 122 C0 81.74 0 41.48 0 0 Z " fill="#1C1C1C" transform="translate(566,183)"/>
<path d="M0 0 C6.65812231 4.94978829 9.2799775 11.00152533 11.46875 18.76171875 C12.57058593 27.7967734 11.31251031 35.4491989 7.09375 43.57421875 C2.8973706 48.56450777 -2.11872416 52.8873819 -8.78515625 53.59765625 C-16.36732919 53.85467906 -22.02701932 52.8853869 -28.21875 48.32421875 C-34.16506669 42.42724909 -36.42626694 35.86934772 -36.54833984 27.47631836 C-36.5427002 26.80737549 -36.53706055 26.13843262 -36.53125 25.44921875 C-36.52561035 24.74740479 -36.5199707 24.04559082 -36.51416016 23.32250977 C-36.31868825 14.95302184 -34.58025793 8.92358954 -28.83203125 2.76171875 C-21.2579144 -3.98713113 -8.69304438 -5.07688043 0 0 Z " fill="#FBFBFB" transform="translate(919.21875,236.67578125)"/>
<path d="M0 0 C5.53105199 4.18461376 8.42143059 10.11438851 10.23046875 16.6875 C11.19245411 27.231859 10.38623368 37.63789477 3.6875 46.21875 C-0.84062038 50.78328958 -6.566495 52.77816847 -12.89453125 53 C-19.08582209 52.8980018 -24.85894364 51.15783066 -29.62890625 47.109375 C-36.24232662 39.84116054 -38.16374513 31.29935553 -38.046875 21.6640625 C-37.2774483 13.40627175 -33.9240231 6.2535779 -27.76953125 0.6875 C-19.41494149 -5.28006411 -8.79222682 -4.92029227 0 0 Z " fill="#FBFBFB" transform="translate(700.76953125,237.3125)"/>
<path d="M0 0 C0.36856616 6.75704618 0.03060431 13.39773131 -4.51171875 18.796875 C-10.57163016 24.2984575 -17.33215728 26.66052053 -25.4375 27.25 C-29.99062187 26.93048268 -33.10098008 25.57255403 -36.61328125 22.6640625 C-39.18523652 19.57771617 -39.20012745 15.89581427 -39 12 C-37.00208536 7.39610974 -34.2588961 4.8754861 -29.66015625 2.8125 C-20.23705715 -0.06562719 -9.77543736 -0.3727921 0 0 Z " fill="#F8F8F9" transform="translate(525,265)"/>
<path d="M0 0 C6.93 0 13.86 0 21 0 C21 40.26 21 80.52 21 122 C14.07 122 7.14 122 0 122 C0 105.17 0 88.34 0 71 C0.33 71 0.66 71 1 71 C1 87.5 1 104 1 121 C6.94 121 12.88 121 19 121 C19 81.73 19 42.46 19 2 C13.06 2 7.12 2 1 2 C1 19.16 1 36.32 1 54 C-20.12 54 -41.24 54 -63 54 C-63 53.67 -63 53.34 -63 53 C-42.21 53 -21.42 53 0 53 C0 35.51 0 18.02 0 0 Z " fill="#050505" transform="translate(428,183)"/>
<path d="M0 0 C6.6 0 13.2 0 20 0 C20 3.3 20 6.6 20 10 C19.67 10.33 19.34 10.66 19 11 C18.89236325 12.4290161 18.8531936 13.86326126 18.84178162 15.29627991 C18.82709839 16.68667732 18.82709839 16.68667732 18.81211853 18.10516357 C18.80636307 19.13014954 18.8006076 20.1551355 18.79467773 21.21118164 C18.77982834 22.82073982 18.77982834 22.82073982 18.76467896 24.46281433 C18.73295626 28.02857212 18.70826412 31.59434325 18.68359375 35.16015625 C18.66303351 37.62495785 18.6420373 40.08975586 18.62062073 42.55455017 C18.56530395 49.05649915 18.51593718 55.55848046 18.46777344 62.06048584 C18.4181596 68.68944549 18.36190588 75.3183511 18.30664062 81.94726562 C18.19894163 94.9648032 18.09733369 107.98238101 18 121 C17.67 121 17.34 121 17 121 C17 82.06 17 43.12 17 3 C12.38 3 7.76 3 3 3 C3 41.94 3 80.88 3 121 C2.01 121 1.02 121 0 121 C0 81.07 0 41.14 0 0 Z " fill="#393839" transform="translate(607,183)"/>
<path d="M0 0 C46 0 46 0 49 2 C33.49 2 17.98 2 2 2 C2 41.27 2 80.54 2 121 C17.18 121 32.36 121 48 121 C48 121.33 48 121.66 48 122 C32.16 122 16.32 122 0 122 C0 81.74 0 41.48 0 0 Z " fill="#0E0D0E" transform="translate(748,183)"/>
<path d="M0 0 C2.4375 2.125 2.4375 2.125 4 5 C4.07517661 9.2850666 3.69099731 11.23003157 0.8125 14.4375 C-2.56275179 16.31263988 -4.2007634 16.71235686 -8 16 C-10.875 13.9375 -10.875 13.9375 -13 11 C-13.5625 7.4375 -13.5625 7.4375 -13 4 C-9.31092132 -0.83396517 -5.76969201 -1.64848343 0 0 Z " fill="#FAFBFB" transform="translate(241,384)"/>
<path d="M0 0 C-0.680625 0.165 -1.36125 0.33 -2.0625 0.5 C-5.75140011 2.38369367 -7.73928134 4.86541972 -10.3515625 8.02734375 C-11.82381029 9.78915687 -13.35054016 11.40552216 -15 13 C-14.67 13.99 -14.34 14.98 -14 16 C-14.99 16.66 -15.98 17.32 -17 18 C-17.66 18.99 -18.32 19.98 -19 21 C-19.84336511 15.51812677 -17.85457224 12.48793072 -14.7890625 8.1875 C-6.35921422 -2.11973807 -6.35921422 -2.11973807 0 0 Z " fill="#3F8153" transform="translate(229,366)"/>
<path d="M0 0 C6.27 0 12.54 0 19 0 C19 3.3 19 6.6 19 10 C18.01 10.495 18.01 10.495 17 11 C17 8.03 17 5.06 17 2 C11.39 2 5.78 2 0 2 C0 1.34 0 0.68 0 0 Z " fill="#1A1A1A" transform="translate(608,183)"/>
<path d="M0 0 C2.87447909 2.87447909 3.81220805 4.25388693 5 8 C5 9.32 5 10.64 5 12 C-1.27 12 -7.54 12 -14 12 C-14 11.34 -14 10.68 -14 10 C-8.39 10 -2.78 10 3 10 C1.515 5.05 1.515 5.05 0 0 Z " fill="#080808" transform="translate(1039,235)"/>
<path d="M0 0 C6.6 0 13.2 0 20 0 C19.67 0.99 19.34 1.98 19 3 C13.39 2.67 7.78 2.34 2 2 C1.67 3.32 1.34 4.64 1 6 C0.67 6 0.34 6 0 6 C0 4.02 0 2.04 0 0 Z " fill="#202021" transform="translate(345,183)"/>
<path d="M0 0 C8.72143007 1.3190775 15.65314162 7.20504235 22 13 C21.34 13.66 20.68 14.32 20 15 C19.64550781 14.57589844 19.29101562 14.15179688 18.92578125 13.71484375 C13.53338535 7.77406861 7.10165099 4.51344839 0 1 C0 0.67 0 0.34 0 0 Z " fill="#101011" transform="translate(813,189)"/>
<path d="M0 0 C0.66 0.33 1.32 0.66 2 1 C-1.3 4.3 -4.6 7.6 -8 11 C-8 7.71823412 -7.52164099 5.89111788 -6 3 C-4 2.3125 -4 2.3125 -2 2 C-1.34 1.34 -0.68 0.68 0 0 Z " fill="#272627" transform="translate(881,225)"/>
<path d="M0 0 C1.48828125 1.14453125 1.48828125 1.14453125 3 3 C3.29296875 5.69921875 3.29296875 5.69921875 3.1875 8.6875 C3.16042969 9.68136719 3.13335937 10.67523438 3.10546875 11.69921875 C3.07066406 12.45847656 3.03585938 13.21773438 3 14 C-0.13269705 10.86730295 -0.05494397 8.02671577 -0.0625 3.75 C-0.0315625 1.89375 -0.0315625 1.89375 0 0 Z " fill="#3D8051" transform="translate(158,385)"/>
<path d="M0 0 C0.66 0.33 1.32 0.66 2 1 C1.030625 1.598125 0.06125 2.19625 -0.9375 2.8125 C-4.23052042 4.71127509 -4.23052042 4.71127509 -5 8 C-5.99 7.01 -6.98 6.02 -8 5 C-6.71475739 4.13619741 -5.42157581 3.28419631 -4.125 2.4375 C-3.04605469 1.72400391 -3.04605469 1.72400391 -1.9453125 0.99609375 C-1.30335938 0.66738281 -0.66140625 0.33867187 0 0 Z " fill="#151516" transform="translate(486,220)"/>
</svg>
