<?xml version="1.0" encoding="UTF-8"?>
<svg version="1.1" xmlns="http://www.w3.org/2000/svg" width="1536" height="1024">
<path d="M0 0 C506.88 0 1013.76 0 1536 0 C1536 337.92 1536 675.84 1536 1024 C1029.12 1024 522.24 1024 0 1024 C0 686.08 0 348.16 0 0 Z " fill="#FDFDFD" transform="translate(0,0)"/>
<path d="M0 0 C4.56578045 2.81541026 8.23546867 7.11656225 9.92578125 12.1875 C10.43368935 18.40937421 10.67932481 23.93253901 6.92578125 29.1875 C0.27582944 35.54832347 -4.9786257 36.64377707 -13.96875 36.51171875 C-18.85355348 36.00173298 -21.3064481 34.30286601 -24.46484375 30.5234375 C-25.97543429 28.99218954 -25.97543429 28.99218954 -28.01953125 29.12109375 C-37.409094 31.29179912 -43.71043181 35.70940772 -48.8828125 43.84375 C-51.93973074 49.85735966 -52.37156313 55.09136529 -52.36474609 61.70263672 C-52.37146332 62.64341568 -52.37818054 63.58419464 -52.38510132 64.55348206 C-52.40406615 67.65810467 -52.4080059 70.76251058 -52.41015625 73.8671875 C-52.41658922 76.03988736 -52.42331795 78.21258635 -52.43032837 80.38528442 C-52.44230024 84.94307458 -52.44600968 89.50078898 -52.44482422 94.05859375 C-52.44462196 99.8593596 -52.47182841 105.6596304 -52.50636864 111.46027946 C-52.52877258 115.95256718 -52.53265752 120.44473875 -52.53160477 124.93707657 C-52.53394415 127.07300636 -52.54267234 129.20894018 -52.5582695 131.3448143 C-52.66096776 146.87230422 -51.85914622 161.59666874 -44.26171875 175.5625 C-43.74677856 176.54935791 -43.74677856 176.54935791 -43.22143555 177.55615234 C-40.27398422 183.08491198 -36.90725816 188.22933957 -33.07421875 193.1875 C-32.31109375 194.21875 -31.54796875 195.25 -30.76171875 196.3125 C-16.84027743 211.20520466 2.91508994 220.7098594 23.296875 221.42578125 C48.89170912 221.89788623 69.86529644 215.22727031 88.98828125 197.625 C98.53723006 187.56625105 105.22693017 175.52664644 108.92578125 162.1875 C109.17853821 161.28309677 109.43129517 160.37869354 109.69171143 159.44688416 C112.36417975 148.60132859 112.34595027 138.08678388 112.2890625 126.9765625 C112.28854261 124.95307414 112.28906529 122.92958528 112.29057312 120.90609741 C112.290484 116.69204035 112.28017262 112.47817699 112.26196289 108.26416016 C112.23919009 102.87772911 112.238754 97.49157812 112.24548054 92.10511208 C112.24882822 87.93742404 112.24217678 83.76979928 112.2323513 79.60212326 C112.22851941 77.61590277 112.22734269 75.62967523 112.22893715 73.64345169 C112.22930999 70.86844793 112.21662945 68.09379798 112.20043945 65.31884766 C112.20291687 64.50933655 112.20539429 63.69982544 112.20794678 62.86578369 C112.12566787 53.98305326 110.24165662 45.09281205 104.23828125 38.26953125 C99.5472035 33.83381459 94.26266909 30.65317474 87.92578125 29.1875 C83.5720609 29.70445381 81.19086106 32.40870867 77.92578125 35.1875 C71.78691765 37.23378787 64.4256136 37.29321965 58.48828125 34.5625 C53.86796814 31.8576917 50.63806235 28.3243433 48.92578125 23.1875 C48.263722 15.76375361 48.19524679 10.13099201 52.92578125 4.1875 C58.329473 -0.51616805 62.97533238 -2.22726166 70.1484375 -2.1640625 C74.88991425 -1.56387557 79.07766877 0.3754178 82.92578125 3.1875 C84.20703125 5.359375 84.20703125 5.359375 84.92578125 7.1875 C86.01890625 7.105 87.11203125 7.0225 88.23828125 6.9375 C99.5433879 6.97737692 110.61792864 14.0137352 118.92578125 21.1875 C133.27690639 37.71303804 134.2431046 55.41718982 134.2265625 76.2265625 C134.23045823 78.27761928 134.23479467 80.32867526 134.23954773 82.37973022 C134.24698172 86.66805643 134.24674018 90.95630028 134.24145508 95.24462891 C134.23567857 100.69420739 134.25256141 106.14344399 134.27579975 111.59296608 C134.29065837 115.82793086 134.2913922 120.06281573 134.28829002 124.29780197 C134.28879764 126.30450489 134.29392798 128.31121297 134.30410194 130.31789017 C134.44751967 162.56942704 126.10843447 190.88019894 103.17578125 214.375 C88.49039631 228.87121252 70.66248482 237.12290536 50.92578125 242.1875 C50.2503125 242.39503906 49.57484375 242.60257813 48.87890625 242.81640625 C45.90450031 243.38154338 42.9454459 243.20823346 39.92578125 243.1875 C40.01037235 252.43710961 40.10532767 261.68653913 40.21330833 270.93590546 C40.26313346 275.23132635 40.3094641 279.52672429 40.34765625 283.82226562 C40.38468396 287.97209293 40.43109002 292.12172145 40.48384476 296.27137756 C40.50229622 297.85006707 40.51743785 299.42879903 40.52912521 301.0075531 C40.54614728 303.22854727 40.57521795 305.44909529 40.60693359 307.66992188 C40.62025726 308.93122925 40.63358093 310.19253662 40.64730835 311.49206543 C41.14608183 318.11096722 42.41432874 324.11211593 46.92578125 329.1875 C53.73444368 334.07477853 60.65761772 335.38304876 68.92578125 334.1875 C69.91578125 333.5275 70.90578125 332.8675 71.92578125 332.1875 C71.59578125 331.1975 71.26578125 330.2075 70.92578125 329.1875 C70.13721818 319.08782688 71.0514243 311.29048166 77.61328125 303.375 C83.89449514 296.84299355 89.77293384 294.48840025 98.8359375 294.03125 C106.80317859 294.43414462 113.58728803 297.68429615 119.265625 303.234375 C125.01481823 309.99813174 125.85595521 317.52275763 125.43359375 326.16796875 C124.77113738 333.16370772 121.89621294 339.22285863 116.921875 344.1875 C114.96997682 345.72827731 113.1164689 347.01406808 110.92578125 348.1875 C110.22195313 348.5690625 109.518125 348.950625 108.79296875 349.34375 C103.80327879 350.81210563 98.64813527 350.18725792 93.49414062 349.93359375 C88.04351744 349.7937287 84.53038237 350.48163409 79.78588867 353.16992188 C70.66321664 358.1605108 58.7944879 357.31219183 49.11328125 354.5625 C37.54941165 350.49530567 27.99261539 344.07381663 22.55078125 332.75 C18.60759074 322.26000608 18.65722336 311.85352927 18.73046875 300.8046875 C18.73420581 299.13746308 18.7370495 297.47023645 18.73904419 295.80300903 C18.74662613 291.44651059 18.76622692 287.09014867 18.78845215 282.73370361 C18.80902874 278.27561285 18.818071 273.81749971 18.828125 269.359375 C18.84947874 260.6353545 18.88354776 251.9114443 18.92578125 243.1875 C18.1807988 243.12587173 17.43581635 243.06424347 16.66825867 243.00074768 C15.68549454 242.91614792 14.70273041 242.83154816 13.69018555 242.74438477 C12.71832809 242.6621315 11.74647064 242.57987823 10.74516296 242.49513245 C6.93961471 242.07989597 3.39378881 241.23534079 -0.26171875 240.125 C-1.33401733 239.80281494 -1.33401733 239.80281494 -2.42797852 239.47412109 C-27.93443211 231.39469786 -49.20602655 213.55700762 -62.07421875 190.1875 C-72.95152318 169.21163579 -75.56531274 147.82218424 -75.4375 124.5390625 C-75.43697922 122.62437948 -75.43750532 120.70969593 -75.43901062 118.79501343 C-75.43892183 114.82012752 -75.42868091 110.84544838 -75.41040039 106.87060547 C-75.38762326 101.81101746 -75.3871963 96.75172774 -75.39391804 91.69210243 C-75.3972787 87.75240489 -75.39059015 83.81277373 -75.3807888 79.87308884 C-75.37697962 78.00822676 -75.37577049 76.14335725 -75.37737465 74.27849197 C-75.38137228 46.52066649 -75.38137228 46.52066649 -69.07421875 35.1875 C-68.57921875 34.29160156 -68.08421875 33.39570313 -67.57421875 32.47265625 C-60.31713191 20.22632221 -50.17103922 13.26739586 -37.07421875 8.1875 C-34.43509139 7.54314163 -31.8707875 7.11190208 -29.18359375 6.7421875 C-25.9174991 5.88332557 -23.98106177 3.87179383 -21.578125 1.5859375 C-15.88954654 -3.70370169 -6.73524718 -2.80747778 0 0 Z " fill="#44A46B" transform="translate(377.07421875,326.8125)"/>
<path d="M0 0 C57.23305005 0 57.23305005 0 71.5625 7.8125 C72.55141235 8.33287842 72.55141235 8.33287842 73.56030273 8.86376953 C82.72897884 13.84049921 88.49963592 20.16565565 94 29 C94.39058594 29.62390625 94.78117187 30.2478125 95.18359375 30.890625 C103.51499359 45.80285818 104.14786816 64.3487996 100.09765625 80.625 C95.30180316 95.37096823 86.6368501 107.36336394 73 115 C49.32931491 125.96080985 27.42184769 122 0 122 C0 81.74 0 41.48 0 0 Z " fill="#232324" transform="translate(987,441)"/>
<path d="M0 0 C10.29068713 7.18777002 16.83385937 17.52747961 19.671875 29.6796875 C21.12023617 44.36334912 19.66110909 57.37589147 10.58984375 69.42578125 C3.4707949 77.79175108 -5.50713413 83.77778149 -16.66577148 84.91870117 C-31.31997665 85.68743238 -42.75324767 84.26202173 -54.36328125 74.5625 C-62.75405259 66.52203919 -68.05160212 56.05123866 -68.6640625 44.3828125 C-68.95193857 30.14718258 -66.26293579 17.18863116 -56.22265625 6.421875 C-41.4018646 -7.40406144 -17.81375071 -10.1024291 0 0 Z " fill="#222122" transform="translate(950.328125,480.3203125)"/>
<path d="M0 0 C11.26807813 7.77930779 17.54360377 18.59385638 20.78125 31.71484375 C22.23109177 46.85388921 18.51149021 60.02604493 9.0390625 71.8984375 C1.73003805 79.92016765 -7.85083026 84.43664913 -18.625 84.98828125 C-33.09518144 85.40208066 -44.15168055 83.62603404 -55.10107422 73.36474609 C-63.75872925 64.51411395 -68.15462306 52.70521934 -68.53125 40.46484375 C-68.28240057 27.78816077 -64.22612708 14.98714369 -55.21875 5.71484375 C-40.25234203 -7.29942405 -17.42079912 -10.09056851 0 0 Z " fill="#222122" transform="translate(1169.21875,480.28515625)"/>
<path d="M0 0 C6.93 0 13.86 0 21 0 C21 17.49 21 34.98 21 53 C41.46 53 61.92 53 83 53 C83 35.51 83 18.02 83 0 C89.93 0 96.86 0 104 0 C104 40.26 104 80.52 104 122 C97.07 122 90.14 122 83 122 C83 105.17 83 88.34 83 71 C62.54 71 42.08 71 21 71 C21 87.83 21 104.66 21 122 C14.07 122 7.14 122 0 122 C0 81.74 0 41.48 0 0 Z " fill="#232223" transform="translate(584,441)"/>
<path d="M0 0 C5.74402549 5.10716125 8.37914796 11.78100311 9.40344238 19.33529663 C9.57096837 22.25548162 9.62528788 25.15321985 9.62890625 28.078125 C9.6454425 29.12797073 9.66197876 30.17781647 9.67901611 31.25947571 C9.72709955 34.57018107 9.74877882 37.88042851 9.76953125 41.19140625 C9.79772406 43.45379859 9.82765605 45.71616997 9.859375 47.97851562 C9.93284722 53.48689709 9.9847208 58.99515188 10.01953125 64.50390625 C11.66953125 65.16390625 13.31953125 65.82390625 15.01953125 66.50390625 C15.01953125 71.12390625 15.01953125 75.74390625 15.01953125 80.50390625 C12.12313007 80.58511376 9.22902213 80.64450046 6.33203125 80.69140625 C5.51541016 80.71654297 4.69878906 80.74167969 3.85742188 80.76757812 C-0.89642198 80.82531712 -4.18724901 80.71355372 -7.98046875 77.50390625 C-9.40295058 75.23667412 -10.06802509 73.04914383 -10.98046875 70.50390625 C-11.44195313 70.9628125 -11.9034375 71.42171875 -12.37890625 71.89453125 C-20.83590771 79.85012947 -30.34901022 82.89827645 -41.86328125 82.7890625 C-49.69960546 82.07220577 -57.13661627 79.88902628 -62.98046875 74.50390625 C-64.52734375 72.50390625 -64.52734375 72.50390625 -65.73046875 70.50390625 C-66.1378125 69.84390625 -66.54515625 69.18390625 -66.96484375 68.50390625 C-70.27890482 61.97775521 -70.110368 53.01630643 -68.3671875 46.0546875 C-64.82078751 38.10262761 -58.26894901 33.72549846 -50.35546875 30.69140625 C-37.53670125 26.54095605 -24.33428747 26.07924084 -10.98046875 25.50390625 C-12.10434085 17.1353995 -12.10434085 17.1353995 -16.98046875 10.50390625 C-22.66188402 7.59391306 -29.946515 7.55474066 -36.10546875 9.00390625 C-40.24901848 10.57559753 -42.59603235 12.83554255 -44.98046875 16.50390625 C-45.31046875 17.49390625 -45.64046875 18.48390625 -45.98046875 19.50390625 C-52.25046875 19.50390625 -58.52046875 19.50390625 -64.98046875 19.50390625 C-63.97922245 10.49268958 -62.74217767 4.56265639 -55.7578125 -1.390625 C-39.6683924 -12.43027719 -15.52376804 -11.72702793 0 0 Z " fill="#212021" transform="translate(773.98046875,483.49609375)"/>
<path d="M0 0 C36.38686131 0 36.38686131 0 48.6875 11.0625 C55.6407554 18.51703661 59.04163334 27.99039268 60 38 C60.10634766 39.08667969 60.10634766 39.08667969 60.21484375 40.1953125 C60.75329416 51.86891748 57.40752309 64.72324626 49.53515625 73.55859375 C35.36326962 86.86502165 18.88406138 85 0 85 C0 56.95 0 28.9 0 0 Z " fill="#FCFCFC" transform="translate(1008,460)"/>
<path d="M0 0 C7.86820145 5.36966395 12.80185587 12.01659514 16 21 C16 22.32 16 23.64 16 25 C-1.26251671 26.23059525 -1.26251671 26.23059525 -5.31640625 23.359375 C-6.6875 21.25 -6.6875 21.25 -7.84375 19.046875 C-9.54511652 16.03499642 -11.60998388 14.9614983 -14.73046875 13.625 C-20.87218376 11.93364991 -26.77723178 12.0655961 -32.5 14.9375 C-33.1084375 15.29714844 -33.716875 15.65679687 -34.34375 16.02734375 C-36 17 -36 17 -39 18 C-40.10168984 19.69769234 -40.10168984 19.69769234 -41 22 C-41.7734375 23.7015625 -41.7734375 23.7015625 -42.5625 25.4375 C-46.16727702 34.37107783 -46.2312901 44.56247111 -43.10546875 53.67578125 C-40.50477583 59.1436692 -36.83521571 62.89194523 -31.6875 66 C-24.16720268 68.03940266 -17.84255971 67.75669945 -11 64 C-7.15112531 61.37989728 -7.15112531 61.37989728 -4.99609375 57.38671875 C-3 55 -3 55 -0.88623047 54.59570312 C1.82045236 54.50670495 4.48216427 54.56546889 7.1875 54.6875 C8.59805664 54.72133789 8.59805664 54.72133789 10.03710938 54.75585938 C12.35967473 54.81480773 14.67903776 54.89702215 17 55 C15.91458408 65.07710003 11.06483995 71.87874447 3.375 78.30859375 C-7.55717106 86.09416952 -20.07770488 86.03289616 -33 85 C-43.28943412 83.0485556 -51.47996174 77.03293289 -58 69 C-66.29285445 56.21451178 -68.15670598 41.24918235 -65.3125 26.4140625 C-62.15554182 16.18025641 -55.87897807 6.18286247 -46.578125 0.52734375 C-32.2411991 -6.9235132 -14.33223058 -8.31816107 0 0 Z " fill="#212021" transform="translate(1267,480)"/>
<path d="M0 0 C6.6 0 13.2 0 20 0 C20 40.26 20 80.52 20 122 C13.4 122 6.8 122 0 122 C0 81.74 0 41.48 0 0 Z " fill="#1E1D1E" transform="translate(846,441)"/>
<path d="M0 0 C6.6 0 13.2 0 20 0 C20 40.26 20 80.52 20 122 C13.4 122 6.8 122 0 122 C0 81.74 0 41.48 0 0 Z " fill="#1F1F1F" transform="translate(805,441)"/>
<path d="M0 0 C7.87433826 4.63196368 11.57175169 9.00114416 14.1875 17.875 C16.42944063 27.61996862 15.18846003 36.39048684 10.375 45.1875 C6.04773979 50.50384826 1.40767819 54.30793221 -5.57421875 55.24609375 C-13.10490252 55.41701715 -18.56594189 54.18951072 -24.8125 49.875 C-31.30580158 43.38169842 -33.02752206 36.05029294 -33.0625 27.1875 C-33.0482339 18.13973507 -31.91528295 11.0987388 -25.52734375 4.3828125 C-18.10429028 -2.14406367 -9.3285187 -2.75267765 0 0 Z " fill="#FBFBFB" transform="translate(1154.8125,493.125)"/>
<path d="M0 0 C5.4803294 4.21263755 8.41512884 10.1200657 10.1953125 16.6875 C10.43249057 19.32403758 10.57661299 21.80484178 10.5703125 24.4375 C10.56789551 25.49094604 10.56789551 25.49094604 10.56542969 26.56567383 C10.37780242 34.57386325 8.06646854 41.98409127 2.1953125 47.6875 C-5.42615033 52.93506457 -12.411385 53.53907408 -21.3671875 52.125 C-27.77013499 49.44740378 -32.32128074 45.4017143 -35.2421875 39.0625 C-39.06393124 29.56812317 -38.97334708 19.72211459 -35.1328125 10.26953125 C-32.31874293 4.79864894 -28.81735589 0.95035075 -23.6171875 -2.3125 C-15.23918405 -4.5100091 -7.63552117 -4.32106664 0 0 Z " fill="#FBFBFB" transform="translate(939.8046875,495.3125)"/>
<path d="M0 0 C0.36856616 6.75704618 0.03060431 13.39773131 -4.51171875 18.796875 C-10.57163016 24.2984575 -17.33215728 26.66052053 -25.4375 27.25 C-29.99062187 26.93048268 -33.10098008 25.57255403 -36.61328125 22.6640625 C-39.18523652 19.57771617 -39.20012745 15.89581427 -39 12 C-36.82234786 6.98193203 -33.95989889 5.14243945 -29.24926758 2.8762207 C-25.58282614 1.44792825 -21.96146589 1.07128818 -18.0625 0.75 C-16.94198242 0.63398437 -16.94198242 0.63398437 -15.79882812 0.515625 C-10.51804226 0.0053161 -5.30356929 -0.06320043 0 0 Z " fill="#FAFAFA" transform="translate(764,523)"/>
<path d="M0 0 C57.23305005 0 57.23305005 0 71.5625 7.8125 C72.55141235 8.33287842 72.55141235 8.33287842 73.56030273 8.86376953 C82.78504279 13.87093055 88.33901072 20.20777603 94 29 C93.67 29.66 93.34 30.32 93 31 C92.5875 30.443125 92.175 29.88625 91.75 29.3125 C89.87688642 26.8373142 87.95326667 24.41241607 86 22 C85.16662109 20.96166016 85.16662109 20.96166016 84.31640625 19.90234375 C80.25595525 15.35355343 75.73500499 12.4608902 70.375 9.6875 C69.76084229 9.36193115 69.14668457 9.0363623 68.51391602 8.70092773 C48.60846436 -0.99595368 22.09978495 2.43695185 2 2 C2 41.27 2 80.54 2 121 C30.17929912 121.12990044 30.17929912 121.12990044 58 118 C59.32 118.33 60.64 118.66 62 119 C41.92693086 124.01826728 20.69084607 122 0 122 C0 81.74 0 41.48 0 0 Z " fill="#100F10" transform="translate(987,441)"/>
<path d="M0 0 C6.93 0 13.86 0 21 0 C21 40.26 21 80.52 21 122 C14.07 122 7.14 122 0 122 C0 105.17 0 88.34 0 71 C0.33 71 0.66 71 1 71 C1 87.5 1 104 1 121 C6.94 121 12.88 121 19 121 C19 81.73 19 42.46 19 2 C13.06 2 7.12 2 1 2 C1 19.16 1 36.32 1 54 C-20.12 54 -41.24 54 -63 54 C-63 53.67 -63 53.34 -63 53 C-42.21 53 -21.42 53 0 53 C0 35.51 0 18.02 0 0 Z " fill="#050505" transform="translate(667,441)"/>
<path d="M0 0 C6.6 0 13.2 0 20 0 C19.67 1.32 19.34 2.64 19 4 C18.90202237 5.63885133 18.85411222 7.28105935 18.84178162 8.92279053 C18.82709839 10.40772255 18.82709839 10.40772255 18.81211853 11.9226532 C18.80636307 13.0023085 18.8006076 14.08196381 18.79467773 15.19433594 C18.77982834 16.90696373 18.77982834 16.90696373 18.76467896 18.65419006 C18.73307266 22.43089723 18.70830982 26.20761697 18.68359375 29.984375 C18.66302348 32.60183033 18.64202699 35.21928233 18.62062073 37.83673096 C18.57074104 44.02374206 18.52578473 50.21077874 18.48259836 56.39783978 C18.43318557 63.44256884 18.37828245 70.48725176 18.32291877 77.53193617 C18.20917127 92.02124708 18.10231653 106.51060392 18 121 C17.67 121 17.34 121 17 121 C17 82.06 17 43.12 17 3 C12.38 3 7.76 3 3 3 C3 41.94 3 80.88 3 121 C2.01 121 1.02 121 0 121 C0 81.07 0 41.14 0 0 Z " fill="#404040" transform="translate(846,441)"/>
<path d="M0 0 C3.80470451 0.7133821 5.41196019 1.67868421 8 4.5625 C8.93605213 8.05709462 9.3742539 10.40855048 8.25 13.875 C7 15.5625 7 15.5625 4 17.5625 C-0.36253463 18.12801375 -2.29752588 18.05572651 -5.9375 15.5 C-8 12.5625 -8 12.5625 -8.625 9.0625 C-7.67703424 3.75389177 -5.38444917 1.00958422 0 0 Z " fill="#F9FBFA" transform="translate(475,640.4375)"/>
<path d="M0 0 C2.2665636 4.5331272 2.2823166 7.98434373 2.25878906 12.90844727 C2.2622937 13.80819778 2.26579834 14.7079483 2.26940918 15.63496399 C2.2782166 18.61218976 2.27237731 21.589178 2.265625 24.56640625 C2.26697276 26.64184108 2.26891422 28.7172756 2.27142334 30.79270935 C2.27437395 35.14805093 2.270082 39.50331053 2.26074219 43.85864258 C2.24939741 49.41768527 2.25587587 54.97653377 2.26788712 60.53556919 C2.27514991 64.82605931 2.27279672 69.11650422 2.26763153 73.40699577 C2.26630464 75.45493531 2.26790879 77.50287906 2.27259064 79.55081367 C2.30922824 100.09811443 2.30922824 100.09811443 0 109 C-2 107 -2 107 -2.125 103.875 C-2.08375 102.92625 -2.0425 101.9775 -2 101 C-1.34 101 -0.68 101 0 101 C0 67.67 0 34.34 0 0 Z " fill="#2D9E5D" transform="translate(509,378)"/>
<path d="M0 0 C6.84597788 -0.10252838 13.69175345 -0.17193196 20.53833008 -0.21972656 C22.86099648 -0.23967881 25.18361373 -0.26685049 27.50610352 -0.30175781 C48.58751678 -0.61037699 67.9360158 0.85659558 84.2109375 16.0234375 C87.55559355 19.71862519 90.30637648 23.81646597 93 28 C92.67 28.66 92.34 29.32 92 30 C91.5875 29.443125 91.175 28.88625 90.75 28.3125 C88.87688642 25.8373142 86.95326667 23.41241607 85 21 C84.16662109 19.96166016 84.16662109 19.96166016 83.31640625 18.90234375 C79.25595525 14.35355343 74.73500499 11.4608902 69.375 8.6875 C68.76084229 8.36193115 68.14668457 8.0363623 67.51391602 7.70092773 C53.42900916 0.83950736 37.89700026 1.47254283 22.625 1.3125 C20.42445967 1.27926166 18.22393795 1.2447662 16.0234375 1.20898438 C10.68241963 1.12483524 5.34138151 1.05618091 0 1 C0 0.67 0 0.34 0 0 Z " fill="#020202" transform="translate(988,442)"/>
<path d="M0 0 C6.93 0 13.86 0 21 0 C21 17.49 21 34.98 21 53 C20.67 53 20.34 53 20 53 C19.67 36.5 19.34 20 19 3 C13.39 2.67 7.78 2.34 2 2 C1.67 3.32 1.34 4.64 1 6 C0.67 6 0.34 6 0 6 C0 4.02 0 2.04 0 0 Z " fill="#2F2F2F" transform="translate(584,441)"/>
<path d="M0 0 C0.66 0.33 1.32 0.66 2 1 C3.87894454 6.63683363 3.74720942 12.75837174 1.875 18.375 C-1.40416429 22.96583 -5.46185102 26.61546275 -11 28 C-14.34084776 28.14928287 -17.65861317 28.11678634 -21 28 C-21 27.67 -21 27.34 -21 27 C-20.20335937 26.90203125 -19.40671875 26.8040625 -18.5859375 26.703125 C-10.02518066 25.58107 -10.02518066 25.58107 -3 21 C-2.1957792 18.40144267 -2.1957792 18.40144267 -2 16 C-1.34 15.67 -0.68 15.34 0 15 C0 10.05 0 5.1 0 0 Z " fill="#269B52" transform="translate(384,335)"/>
<path d="M0 0 C0.33 0.66 0.66 1.32 1 2 C-0.0828125 3.546875 -0.0828125 3.546875 -1.1875 5.125 C-6.70777456 13.53611472 -8.29527098 25.13379374 -9 35 C-9.33 35 -9.66 35 -10 35 C-10.68610242 22.11652114 -8.75427917 11.52160556 -1 1 C-0.67 0.67 -0.34 0.34 0 0 Z " fill="#0C0C0D" transform="translate(892,490)"/>
<path d="M0 0 C9.4921602 5.03665643 15.13496547 10.97961255 21 20 C20.67 20.66 20.34 21.32 20 22 C19.5875 21.443125 19.175 20.88625 18.75 20.3125 C13.34848266 13.17478066 7.88763024 6.43679201 0 2 C0 1.34 0 0.68 0 0 Z " fill="#121213" transform="translate(1060,450)"/>
<path d="M0 0 C6.6 0 13.2 0 20 0 C19.67 0.99 19.34 1.98 19 3 C13.39 2.67 7.78 2.34 2 2 C1.67 3.32 1.34 4.64 1 6 C0.67 6 0.34 6 0 6 C0 4.02 0 2.04 0 0 Z " fill="#242425" transform="translate(584,441)"/>
<path d="M0 0 C6.27 0 12.54 0 19 0 C18.67 1.32 18.34 2.64 18 4 C17.67 3.34 17.34 2.68 17 2 C11.39 2 5.78 2 0 2 C0 1.34 0 0.68 0 0 Z " fill="#262626" transform="translate(847,441)"/>
<path d="M0 0 C0.33 0 0.66 0 1 0 C1.05404449 2.75026417 1.09369306 5.49946203 1.125 8.25 C1.15013672 9.41595703 1.15013672 9.41595703 1.17578125 10.60546875 C1.23662606 17.72431144 1.23662606 17.72431144 -1 21 C-2.35439668 18.29120665 -2.06501451 15.99066732 -2 13 C-1.34 13 -0.68 13 0 13 C0 8.71 0 4.42 0 0 Z " fill="#229853" transform="translate(509,466)"/>
<path d="M0 0 C-4.455 3.465 -4.455 3.465 -9 7 C-9 4 -9 4 -8 1 C-4.72679179 -1.25738497 -4.10538299 -1.02634575 0 0 Z " fill="#38A361" transform="translate(363,327)"/>
<path d="M0 0 C0 0.66 0 1.32 0 2 C-1.62318979 2.36237263 -3.2486358 2.71465157 -4.875 3.0625 C-5.77992188 3.25972656 -6.68484375 3.45695312 -7.6171875 3.66015625 C-10 4 -10 4 -12 3 C-7.77050005 0.58314288 -4.87664009 -0.34833144 0 0 Z " fill="#309E5A" transform="translate(446,325)"/>
<path d="M0 0 C0.66 0.33 1.32 0.66 2 1 C-0.31 3.31 -2.62 5.62 -5 8 C-5.66 7.67 -6.32 7.34 -7 7 C-6.25 4.5625 -6.25 4.5625 -5 2 C-2.9375 1.25 -2.9375 1.25 -1 1 C-0.67 0.67 -0.34 0.34 0 0 Z " fill="#2C2B2C" transform="translate(1119,484)"/>
<path d="M0 0 C0.66 0.66 1.32 1.32 2 2 C0.35 3.65 -1.3 5.3 -3 7 C-3.66 6.67 -4.32 6.34 -5 6 C-4.1875 3.5625 -4.1875 3.5625 -3 1 C-2.01 0.67 -1.02 0.34 0 0 Z " fill="#4DAD72" transform="translate(318,350)"/>
</svg>
